Coordinates
version=1
nRows=11
nColumns=36
inDegrees=yes

Units are S.I. units (second, meters, Newtons, ...)
If the header above contains a line with 'inDegrees', this indicates whether rotational values are in degrees (yes) or radians (no).

endheader
time	pelvis_tilt	pelvis_list	pelvis_rotation	pelvis_tx	pelvis_ty	pelvis_tz	hip_flexion_r	hip_adduction_r	hip_rotation_r	knee_angle_r	knee_angle_r_beta	ankle_angle_r	subtalar_angle_r	mtp_angle_r	hip_flexion_l	hip_adduction_l	hip_rotation_l	knee_angle_l	knee_angle_l_beta	ankle_angle_l	subtalar_angle_l	mtp_angle_l	lumbar_extension	lumbar_bending	lumbar_rotation	arm_flex_r	arm_add_r	arm_rot_r	elbow_flex_r	pro_sup_r	arm_flex_l	arm_add_l	arm_rot_l	elbow_flex_l	pro_sup_l
      0.00000000	      5.29308904	     -3.11643882	     -2.75882345	     -0.99919640	      1.30334569	     -0.08290458	     -6.59735251	      1.89274153	     -5.21745098	      6.43440205	      0.11230150	     -2.13882524	    -24.31068173	     -5.79601716	     -7.75632507	     -1.61613154	      0.75386596	      5.89274162	      0.10284774	      7.40110535	    -12.59315782	     -5.79601716	    -13.05725260	      3.75106091	      0.14285964	      9.19775404	     -5.38836783	     17.62787672	     22.53185372	     77.50448310	      8.68408772	     -6.91160622	     17.92685421	     28.08060044	     69.97372064
      0.00416670	      3.15651707	     -1.71883423	     -2.46430487	     -0.99956392	      1.30448050	     -0.08460267	     -3.22128980	      0.68158184	     -5.09213083	      8.11417487	      0.14161907	      2.73604899	    -20.85503988	     -5.89936733	     -4.18564064	      0.26124475	      1.18985994	      6.77385011	      0.11822599	      7.07626610	    -12.90616075	     -5.89936733	    -10.38938573	      2.51813158	     -0.04406819	      8.27982094	     -4.59937214	     14.79088849	     21.98767430	     77.95207126	      9.38222461	     -6.26908813	     14.67597317	     26.03560061	     69.81820895
      0.00833330	      2.60670837	     -0.46048631	     -2.63825540	     -0.99740090	      1.30600010	     -0.08344975	     -3.05017465	     -0.60206995	     -4.92620428	      6.97813597	      0.12179145	      3.37783448	    -19.24647645	     -6.16473388	     -3.97076564	      1.60636692	      0.59946378	      6.05457846	      0.10567233	      6.89190346	    -12.45309032	     -6.16473388	     -9.47992971	      0.83745597	     -0.14568321	      7.91565627	     -4.06264542	     14.49834845	     22.04138954	     75.98931421	      9.59402824	     -7.12985639	     15.06525102	     26.23034281	     68.63060282
      0.01250000	      3.06768034	     -0.07682199	     -2.61309679	     -0.99682351	      1.30528887	     -0.08208689	     -4.08364003	     -1.00421983	     -5.48853850	      6.08736453	      0.10624455	      3.97849940	    -17.94985145	     -6.37277327	     -5.23891185	      2.12005914	      0.38507972	      4.84281116	      0.08452300	      6.35380381	    -12.40495197	     -6.37277327	     -9.91272860	      0.24048450	      0.35229870	      7.64085111	     -4.05896374	     14.92978451	     22.00065366	     76.54573470	     10.58875723	     -7.95209344	     19.49146524	     25.16303184	     69.12815119
      0.01666670	      3.50087431	      0.06307179	     -2.52704218	     -0.99541349	      1.30525636	     -0.08211644	     -5.11711136	     -0.99217385	     -4.98933597	      5.21600567	      0.09103647	      3.92150716	    -18.11736965	     -6.42073532	     -6.25817549	      2.34718600	      0.56988268	      3.94160542	      0.06879399	      5.93949961	    -12.78212020	     -6.42073532	    -10.43506175	      0.04604785	      0.37195276	      7.54553287	     -3.98668019	     14.95428282	     22.10610071	     76.21861855	     10.79505389	     -8.21596626	     20.06922663	     25.15491027	     68.84866522
      0.02083330	      3.82951135	      0.12082454	     -2.44577586	     -0.99630604	      1.30567564	     -0.08125497	     -5.87981851	     -0.92403534	     -4.85068638	      4.51523982	      0.07880580	      3.99086169	    -18.10555457	     -6.45687004	     -6.90122000	      2.44411056	      0.89952071	      3.41561989	      0.05961381	      5.64516008	    -12.94729420	     -6.45687004	    -10.86185466	     -0.06579328	      0.48335564	      7.51604882	     -4.06185944	     15.18632486	     22.21095973	     76.14021127	     11.19843868	     -8.37847956	     20.84968201	     24.99206149	     68.73227771
      0.02500000	      4.14858603	      0.13165835	     -2.36283631	     -0.99567304	      1.30304744	     -0.08079638	     -6.53783652	     -0.83729509	     -4.93942923	      4.05536316	      0.07077944	      4.26616210	    -17.91714912	     -6.44939833	     -7.39965027	      2.43733862	      1.02251188	      3.13056701	      0.05463870	      5.49753518	    -13.06934782	     -6.44939833	    -11.31828891	     -0.16335046	      0.67324075	      7.55932821	     -4.14751024	     15.67398108	     22.29681083	     75.79399166	     11.66235439	     -8.48950126	     21.90332809	     24.67935442	     68.32687365
      0.02916670	      4.13483779	      0.15463583	     -2.33590674	     -0.99640317	      1.30653540	     -0.08122035	     -6.74007837	     -0.78776952	     -4.53027776	      3.67404289	      0.06412415	      3.51735261	    -19.25672046	     -6.63893626	     -7.48308141	      2.50305598	      1.36444756	      2.90493085	      0.05070061	      5.04104729	    -13.76393414	     -6.63893626	    -11.32686436	     -0.22287107	      0.87183493	      7.48836664	     -4.42361915	     16.86035241	     22.42760126	     74.97584162	     12.16584488	     -8.60226000	     24.31644709	     24.25632289	     67.07572698
      0.03333330	      4.38215164	      0.14043215	     -2.25709741	     -0.99615101	      1.30529515	     -0.08126416	     -7.20051601	     -0.71711208	     -4.47289378	      3.28130541	      0.05726958	      3.03940130	    -19.86760618	     -7.13345835	     -7.80333460	      2.47138981	      1.24760830	      2.79942685	      0.04885922	      4.97194412	    -13.63487230	     -7.13345835	    -11.74540010	     -0.24249280	      0.87691757	      7.57482724	     -4.64359253	     18.32094860	     22.71588815	     71.19578306	     12.45004961	     -8.71628876	     25.31810991	     24.35256521	     64.20928706
      0.03750000	      4.42330677	      0.11801854	     -2.25747508	     -0.99574435	      1.30794194	     -0.08058916	     -7.35089238	     -0.65921505	     -4.74311568	      3.08381905	      0.05382280	      2.57693437	    -20.27951726	     -7.20256666	     -7.91554233	      2.44026901	      1.33681191	      2.73058994	      0.04765778	      4.63838024	    -13.96929687	     -7.20256666	    -11.80783525	     -0.22995723	      0.92799334	      7.74523973	     -4.77218615	     19.04566920	     22.30263037	     72.09920798	     12.74208242	     -8.72986681	     26.53179182	     23.84926860	     63.71606235
      0.04166670	      4.57038551	      0.09824494	     -2.18838290	     -0.99466452	      1.30976168	     -0.08048355	     -7.65683211	     -0.58443519	     -5.10563794	      2.83683552	      0.04951212	      2.34800038	    -20.13083640	     -7.22074044	     -8.14509616	      2.38720542	      1.32033801	      2.65135227	      0.04627483	      4.43663431	    -13.87333782	     -7.22074044	    -12.05765724	     -0.22675165	      0.83675266	      7.74161060	     -4.80828538	     18.94574298	     22.34801266	     71.84230764	     12.74414533	     -8.76769833	     26.42968828	     23.90873978	     63.48960288
